<svg width="355" height="261" xmlns="http://www.w3.org/2000/svg" xmlns:xlink="http://www.w3.org/1999/xlink" xml:space="preserve" overflow="hidden"><g transform="translate(-2073 -1282)"><path d="M2083.72 1540.88C2083.87 1540.93 2084.04 1540.97 2084.2 1541L2363 1541 2424.2 1406.99C2428.57 1397.69 2424.72 1386.54 2415.6 1382.09 2413.77 1381.2 2411.81 1380.62 2409.8 1380.38L2390 1380.38 2390 1339.09C2389.97 1328.97 2381.93 1320.77 2372 1320.74L2238.26 1320.74C2237.44 1320.73 2236.64 1320.49 2235.96 1320.03L2187.5 1287.21C2184.54 1285.26 2181.12 1284.15 2177.6 1284L2093 1284C2083.07 1284.03 2075.03 1292.23 2075 1302.35L2075 1531.73C2075.01 1536.67 2078.87 1540.72 2083.72 1540.88ZM2409.32 1389.55C2414.39 1390.47 2417.78 1395.41 2416.87 1400.58 2416.74 1401.38 2416.5 1402.15 2416.17 1402.89L2416.11 1403.01 2416.06 1403.12 2357.29 1531.8 2357.25 1531.82 2093.45 1531.82C2093.43 1531.82 2093.41 1531.8 2093.41 1531.78 2093.41 1531.77 2093.41 1531.77 2093.41 1531.76L2148.93 1394.17C2150.23 1391.38 2152.97 1389.59 2156 1389.55ZM2084 1302.35C2084 1297.28 2088.03 1293.18 2093 1293.18L2177.6 1293.18C2179.46 1293.33 2181.24 1293.97 2182.79 1295.03L2230.98 1327.65C2233.14 1329.11 2235.67 1329.89 2238.26 1329.89L2372 1329.89C2376.97 1329.89 2381 1334 2381 1339.07L2381 1380.32 2160.5 1380.32C2160.26 1380.32 2160.05 1380.36 2159.8 1380.37L2156 1380.37C2149.4 1380.41 2143.43 1384.35 2140.7 1390.47L2084.09 1530.74C2084.08 1530.77 2084.05 1530.78 2084.03 1530.77 2084.01 1530.77 2084 1530.76 2084 1530.74Z" stroke="#FFFFFF" stroke-width="4.47579" stroke-miterlimit="8" fill="#FFFFFF" fill-rule="evenodd"/></g></svg>