<svg width="303" height="264" xmlns="http://www.w3.org/2000/svg" xmlns:xlink="http://www.w3.org/1999/xlink" xml:space="preserve" overflow="hidden"><g transform="translate(-856 -336)"><path d="M1095.44 360.941 1095.44 341.823C1095.44 339.712 1093.47 338 1091.04 338 1088.62 338 1086.65 339.712 1086.65 341.823L1086.65 360.941 928.353 360.941 928.353 341.823C928.353 339.712 926.384 338 923.956 338 921.528 338 919.559 339.712 919.559 341.823L919.559 360.941 858 360.941 858 598 1157 598 1157 360.941ZM1148.21 590.353 866.794 590.353 866.794 422.118 1148.21 422.118ZM866.794 414.471 866.794 368.588 919.559 368.588 919.559 383.882C919.559 385.994 921.528 387.706 923.956 387.706 926.384 387.706 928.353 385.994 928.353 383.882L928.353 368.588 1086.65 368.588 1086.65 383.882C1086.65 385.994 1088.62 387.706 1091.04 387.706 1093.47 387.706 1095.44 385.994 1095.44 383.882L1095.44 368.588 1148.21 368.588 1148.21 414.471Z" stroke="#FFFFFF" stroke-width="4.04633" stroke-miterlimit="8" fill="#FFFFFF" fill-rule="evenodd"/><path d="M977.308 567 1122 567 1122 445 894 445 894 567 977.308 567ZM977.308 559.375 977.308 528.875 1038.69 528.875 1038.69 559.375ZM977.308 490.75 1038.69 490.75 1038.69 521.25 977.308 521.25ZM968.539 521.25 902.769 521.25 902.769 490.75 968.539 490.75ZM1047.46 490.75 1113.23 490.75 1113.23 521.25 1047.46 521.25ZM1047.46 559.375 1047.46 528.875 1113.23 528.875 1113.23 559.375ZM1113.23 452.625 1113.23 483.125 1047.46 483.125 1047.46 452.625ZM1038.69 452.625 1038.69 483.125 977.308 483.125 977.308 452.625ZM968.539 452.625 968.539 483.125 902.769 483.125 902.769 452.625ZM902.769 559.375 902.769 528.875 968.539 528.875 968.539 559.375Z" stroke="#FFFFFF" stroke-width="4.04633" stroke-miterlimit="8" fill="#FFFFFF" fill-rule="evenodd"/></g></svg>