<svg width="312" height="312" xmlns="http://www.w3.org/2000/svg" xmlns:xlink="http://www.w3.org/1999/xlink" xml:space="preserve" overflow="hidden"><g transform="translate(-2074 -1111)"><path d="M2230 1121.11C2310.57 1121.11 2375.89 1186.43 2375.89 1267 2375.89 1347.57 2310.57 1412.89 2230 1412.89 2149.43 1412.89 2084.11 1347.57 2084.11 1267 2084.2 1186.47 2149.46 1121.2 2230 1121.11M2230 1113C2144.95 1113 2076 1181.95 2076 1267 2076 1352.05 2144.95 1421 2230 1421 2315.05 1421 2384 1352.05 2384 1267 2384.04 1181.99 2315.15 1113.04 2230.14 1113 2230.09 1113 2230.05 1113 2230 1113Z" stroke="#FFFFFF" stroke-width="4.04633" stroke-miterlimit="8" fill="#FFFFFF" fill-rule="evenodd"/><path d="M2233.56 1324 2225.44 1324 2225.44 1276.69 2229.5 1276.69C2256.77 1276.7 2278.88 1254.63 2278.88 1227.4 2278.88 1200.18 2256.78 1178.11 2229.5 1178.1 2202.23 1178.1 2180.12 1200.17 2180.12 1227.4 2180.12 1227.4 2180.12 1227.4 2180.12 1227.4L2172 1227.4C2172 1195.7 2197.74 1170 2229.5 1170 2261.26 1170 2287 1195.7 2287 1227.4 2287 1257.53 2263.66 1282.53 2233.56 1284.66Z" stroke="#FFFFFF" stroke-width="4.04633" stroke-miterlimit="8" fill="#FFFFFF" fill-rule="evenodd"/><path d="M2238 1353C2238 1357.42 2234.42 1361 2230 1361 2225.58 1361 2222 1357.42 2222 1353 2222 1348.58 2225.58 1345 2230 1345 2234.42 1345 2238 1348.58 2238 1353Z" stroke="#FFFFFF" stroke-width="4.04633" stroke-miterlimit="8" fill="#FFFFFF" fill-rule="evenodd"/></g></svg>