<svg width="305" height="262" xmlns="http://www.w3.org/2000/svg" xmlns:xlink="http://www.w3.org/1999/xlink" xml:space="preserve" overflow="hidden"><g transform="translate(-1939 -704)"><path d="M2091.5 825.999C2100.61 825.999 2108 818.836 2108 810 2108 801.164 2100.61 794 2091.5 794 2082.39 794 2075 801.164 2075 810 2074.9 818.743 2082.14 825.906 2091.15 825.999 2091.27 826 2091.38 826 2091.5 825.999ZM2091.5 802C2096.06 802 2099.75 805.581 2099.75 810 2099.75 814.418 2096.06 818 2091.5 818 2086.94 818 2083.25 814.418 2083.25 810 2083.15 805.678 2086.68 802.093 2091.13 801.992 2091.26 801.99 2091.38 801.989 2091.5 801.992Z" stroke="#FFFFFF" stroke-width="4.04633" stroke-miterlimit="8" fill="#FFFFFF" fill-rule="evenodd"/><path d="M2144.38 817.622 2144.38 799.366 2146.07 801.057 2167.26 779.663 2091.5 707 2014.09 780.903 2035.67 802.329 2038.62 799.374 2038.62 817.622 1941 817.622 1941 964 2063.03 964 2063.03 919.602C2063.03 903.886 2075.77 891.146 2091.5 891.146 2107.23 891.146 2119.97 903.886 2119.97 919.602L2119.97 964 2242 964 2242 817.622ZM2035.65 790.85 2025.74 781.016 2091.5 718.277 2155.67 779.813 2146.05 789.52 2144.38 787.866 2144.38 787.837 2091.5 734.992 2038.62 787.837 2038.62 787.894ZM2233.86 955.87 2128.11 955.87 2128.11 919.602C2128.11 899.396 2111.72 883.016 2091.5 883.016 2071.28 883.016 2054.89 899.396 2054.89 919.602L2054.89 955.87 1949.14 955.87 1949.14 825.752 2046.76 825.752 2046.76 791.244 2052.21 785.793 2052.21 785.793 2091.5 746.476 2127.21 782.175 2127.21 782.175 2136.24 791.236 2136.24 825.752 2233.86 825.752Z" stroke="#FFFFFF" stroke-width="4.04633" stroke-miterlimit="8" fill="#FFFFFF" fill-rule="evenodd"/><path d="M1974 851 1982 851 1982 883 1974 883Z" stroke="#FFFFFF" stroke-width="4.04633" stroke-miterlimit="8" fill="#FFFFFF" fill-rule="evenodd"/><path d="M1998 851 2006 851 2006 883 1998 883Z" stroke="#FFFFFF" stroke-width="4.04633" stroke-miterlimit="8" fill="#FFFFFF" fill-rule="evenodd"/><path d="M1974 899 1982 899 1982 932 1974 932Z" stroke="#FFFFFF" stroke-width="4.04633" stroke-miterlimit="8" fill="#FFFFFF" fill-rule="evenodd"/><path d="M1998 899 2006 899 2006 932 1998 932Z" stroke="#FFFFFF" stroke-width="4.04633" stroke-miterlimit="8" fill="#FFFFFF" fill-rule="evenodd"/><path d="M2022 851 2031 851 2031 883 2022 883Z" stroke="#FFFFFF" stroke-width="4.04633" stroke-miterlimit="8" fill="#FFFFFF" fill-rule="evenodd"/><path d="M2022 899 2031 899 2031 932 2022 932Z" stroke="#FFFFFF" stroke-width="4.04633" stroke-miterlimit="8" fill="#FFFFFF" fill-rule="evenodd"/><path d="M2152 851 2161 851 2161 883 2152 883Z" stroke="#FFFFFF" stroke-width="4.04633" stroke-miterlimit="8" fill="#FFFFFF" fill-rule="evenodd"/><path d="M2177 851 2185 851 2185 883 2177 883Z" stroke="#FFFFFF" stroke-width="4.04633" stroke-miterlimit="8" fill="#FFFFFF" fill-rule="evenodd"/><path d="M2152 899 2161 899 2161 932 2152 932Z" stroke="#FFFFFF" stroke-width="4.04633" stroke-miterlimit="8" fill="#FFFFFF" fill-rule="evenodd"/><path d="M2177 899 2185 899 2185 932 2177 932Z" stroke="#FFFFFF" stroke-width="4.04633" stroke-miterlimit="8" fill="#FFFFFF" fill-rule="evenodd"/><path d="M2201 851 2209 851 2209 883 2201 883Z" stroke="#FFFFFF" stroke-width="4.04633" stroke-miterlimit="8" fill="#FFFFFF" fill-rule="evenodd"/><path d="M2201 899 2209 899 2209 932 2201 932Z" stroke="#FFFFFF" stroke-width="4.04633" stroke-miterlimit="8" fill="#FFFFFF" fill-rule="evenodd"/><path d="M2063 851 2120 851 2120 859 2063 859Z" stroke="#FFFFFF" stroke-width="4.04633" stroke-miterlimit="8" fill="#FFFFFF" fill-rule="evenodd"/></g></svg>